:SAMPLES-PER-SECOND 30
:FRAME-RANGE 1-1700
:FULLY-SPECIFIED
:DEGREES
851
root  26.7065 39.4864 41.9378 -169.605 32.3498 -175.028
RightUpLeg  -28.5587 -14.5647 -2.29268
RightLeg  11.6895 -9.03737 -1.34639
RightFoot  -0.338775 -0.998001 10.3118
RightToes  -1.16417e-010 0 -3.6325e-017
Spine  15.0062 0.771485 0.169025
Spine1  1.43707 2.05842 -4.16618
HEad  -10.6739 21.9369 -9.27788
LeftShoulder1  0.503749 2.13984 -30.8382
LeftArm  -12.5256 31.8198 -34.787
LeftForeArm  8.41582 -2.01343 -15.9662
LeftHand  0.147881 2.34331 -6.27272
RightShoulder  4.80403 5.99344 44.2239
RightArm  3.5431 -10.5729 10.6658
RightForeArm  27.0422 -6.66968 16.0594
RightHand  0.257808 2.34881 3.67921
LeftUpLeg  -0.518208 8.44945 3.07336
LeftLeg  8.02529 2.50517 -1.80368
LeftFoot  -16.1666 -0.0247134 -2.88602
LeftToes  1.03528e-008 1.55373e-010 -2.26046e-010
852
root  27.873 39.1337 41.0409 -171.515 31.3992 -176.029
RightUpLeg  -24.7668 -8.29336 -6.22006
RightLeg  -0.823136 -20.9187 4.55551
RightFoot  1.02283 -1.35149 12.496
RightToes  -1.16417e-010 0 -3.6325e-017
Spine  14.6346 0.209594 -0.166753
Spine1  1.89157 1.48631 -4.06228
HEad  -10.0482 21.6882 -7.91599
LeftShoulder1  0.717299 1.57329 -31.0728
LeftArm  -10.367 26.7383 -35.8184
LeftForeArm  10.5415 -2.24692 -16.0212
LeftHand  0.162978 1.86129 -5.80602
RightShoulder  5.09098 6.45411 44.7158
RightArm  1.87123 -10.353 10.6549
RightForeArm  27.4975 -6.91936 15.8016
RightHand  0.416071 2.28807 6.10475
LeftUpLeg  2.79075 9.22671 3.99987
LeftLeg  9.21164 0.323904 -2.17131
LeftFoot  -18.6469 -0.111376 -3.4947
LeftToes  1.03528e-008 1.55373e-010 -2.26046e-010
853
root  29.1655 38.7275 40.0423 -173.587 30.3871 -176.969
RightUpLeg  -23.2204 -7.59381 -5.83128
RightLeg  -4.78916 -24.8091 6.47515
RightFoot  0.329568 -1.22049 11.924
RightToes  -1.16417e-010 0 -3.6325e-017
Spine  14.091 -0.0864824 -0.764254
Spine1  2.0777 0.926533 -3.08469
HEad  -8.36688 21.0335 -6.85447
LeftShoulder1  0.829077 1.26316 -30.9228
LeftArm  -6.01197 22.2491 -36.5421
LeftForeArm  10.9147 -4.84327 -15.6576
LeftHand  0.175194 1.37894 -5.37
RightShoulder  5.48284 7.13345 45.0927
RightArm  0.841845 -9.42044 10.7772
RightForeArm  28.7178 -6.92782 15.7186
RightHand  0.251235 2.33055 3.59063
LeftUpLeg  6.70767 9.93763 5.33026
LeftLeg  10.1844 -2.11652 -2.50598
LeftFoot  -21.1498 -0.286785 -4.81805
LeftToes  1.03528e-008 1.55373e-010 -2.26046e-010
854
root  30.5132 38.3715 38.9612 -175.255 29.4563 -177.534
RightUpLeg  -21.2067 -6.48002 -4.67105
RightLeg  -4.37279 -24.1558 6.01158
RightFoot  0.193307 -1.1837 11.6951
RightToes  -1.16417e-010 0 -3.6325e-017
Spine  13.9219 -0.103661 -0.476536
Spine1  1.49302 0.552845 -1.96855
HEad  -6.31044 19.7565 -6.03063
LeftShoulder1  0.834656 1.21723 -30.4199
LeftArm  2.19388 19.4908 -37.2639
LeftForeArm  7.40678 -11.2321 -13.3619
LeftHand  0.158131 0.703112 -4.05872
RightShoulder  5.73106 7.54908 45.3695
RightArm  -0.0336659 -8.51573 10.9481
RightForeArm  30.0891 -6.94179 15.6193
RightHand  0.253035 2.26703 3.65327
LeftUpLeg  10.4006 10.4826 7.04491
LeftLeg  11.2847 -4.26943 -2.5839
LeftFoot  -22.5769 -0.525149 -6.70918
LeftToes  1.03528e-008 1.55373e-010 -2.26046e-010
855
root  31.7512 38.3541 37.9076 -176.079 29.0989 -176.987
RightUpLeg  -21.7066 -4.74926 -2.53603
RightLeg  0.716591 -19.1475 2.92908
RightFoot  9.53823 -0.117422 0.993623
RightToes  -1.16417e-010 0 -3.6325e-017
Spine  14.9619 0.191441 2.55863
Spine1  0.695237 0.587597 -1.02295
HEad  -5.06431 18.1094 -5.51998
LeftShoulder1  0.805094 1.28205 -30.1503
LeftArm  14.2287 18.2684 -37.4727
LeftForeArm  -2.98251 -20.547 -6.73694
LeftHand  0.158406 0.123715 -3.53922
RightShoulder  5.83246 7.63728 45.8214
RightArm  -0.399008 -7.60795 11.1325
RightForeArm  30.0935 -6.93253 15.6286
RightHand  0.247917 2.24598 3.58736
LeftUpLeg  14.3127 10.8542 9.29901
LeftLeg  10.5119 -5.68932 -1.8802
LeftFoot  -21.277 -0.769281 -10.2932
LeftToes  1.03528e-008 1.55373e-010 -2.26046e-010
856
root  33.0192 38.1805 36.8336 -176.858 29.9161 -176.052
RightUpLeg  -23.701 -5.98372 0.220729
RightLeg  11.4496 -15.4345 -0.956729
RightFoot  9.01362 0.0776917 -0.0871355
RightToes  -1.16417e-010 0 -3.6325e-017
Spine  16.0464 0.242266 6.61346
Spine1  -0.512339 1.61547 -2.93918
HEad  -5.48232 16.9112 -5.94031
LeftShoulder1  0.804502 1.29897 -30.4041
LeftArm  8.56295 16.5149 -36.7488
LeftForeArm  2.29404 -27.4826 -5.80305
LeftHand  0.114005 0.0206013 -2.48968
RightShoulder  6.57313 8.78375 46.8432
RightArm  -1.54403 -5.64037 11.2996
RightForeArm  29.8322 -6.99054 15.5847
RightHand  0.224742 2.10233 3.30967
LeftUpLeg  15.9024 10.6576 11.4557
LeftLeg  15.1428 -5.23428 -1.29001
LeftFoot  -20.2374 -1.08196 -15.3832
LeftToes  1.03528e-008 1.55373e-010 -2.26046e-010
857
root  34.1666 38.0644 35.8501 -177.076 30.8311 -175.135
RightUpLeg  -24.3163 -11.4932 3.935
RightLeg  17.8002 -8.33053 -2.26769
RightFoot  5.00755 0.031742 0.0177952
RightToes  -1.16417e-010 0 -3.6325e-017
Spine  16.1448 0.148226 9.71564
Spine1  -0.598187 2.25808 -3.42986
HEad  -6.0051 16.6317 -6.49193
LeftShoulder1  0.85283 1.15393 -30.2086
LeftArm  2.36385 15.3429 -37.0942
LeftForeArm  8.90898 -33.3044 -6.88553
LeftHand  0.0542733 0.417452 -1.33444
RightShoulder  8.21312 11.8018 46.9729
RightArm  -4.42779 -3.09472 11.997
RightForeArm  31.405 -7.3034 15.109
RightHand  0.245319 2.11385 3.6221
LeftUpLeg  13.9907 9.25109 12.9254
LeftLeg  24.0525 -2.27977 -0.778803
LeftFoot  -16.1551 -0.809347 -21.3197
LeftToes  1.03528e-008 1.55373e-010 -2.26046e-010
